<svg xmlns="http://www.w3.org/2000/svg" width="136" height="136" fill="none">
  <path fill="#FA2828" fill-opacity=".98" fill-rule="evenodd"
    d="M8.62 93.553c7.985 20.796 31.576 31.036 52.662 22.94 21.086-8.097 31.761-31.495 23.776-52.292l-2.801 1.076c7.375 19.206-2.467 40.895-22.05 48.415-19.583 7.52-41.412-2.009-48.787-21.215l-2.8 1.076Z"
    clip-rule="evenodd" />
  <path fill="#000" fill-rule="evenodd"
    d="M23.41 44.322c-.787-.592-.947-1.714-.326-2.48 16.17-19.94 45.6-23.43 66.589-7.67 20.989 15.762 25.843 45 11.201 66.088-.562.809-1.684.968-2.472.377-.788-.592-.942-1.71-.383-2.52 13.43-19.471 8.968-46.482-10.488-61.092-19.455-14.61-46.64-11.365-61.594 6.962-.622.763-1.739.926-2.526.335Z"
    clip-rule="evenodd" />
</svg>
